# xmcd
#
# Track frame offsets: 
#        150
#        26086
#        42720
#        70055
#        91730
#        102888
#        119502
#        130636
#        165939
#        188759
#
# Disc length: 2811 seconds
#
# Revision: 0
# Processed by: cddbd v1.5.2PL0 Copyright (c) Steve Scherf et al.
# Submitted via: ExactAudioCopy v0.99pb1
#
DISCID=7c0af90a
DTITLE=Kasey Anderson - The Reckoning
DYEAR=2007
DGENRE=Country
TTITLE0=The Reckoning
TTITLE1=Last Thin Line
TTITLE2=Don't Look Back
TTITLE3=Long Way Home
TTITLE4=Hometown Boys
TTITLE5=Buddy Bolden's Blues
TTITLE6=Wake Up
TTITLE7=You Don't Live Here Anymore
TTITLE8=Red Shadows
TTITLE9=For St. Ann's
EXTD=
EXTT0=
EXTT1=
EXTT2=
EXTT3=
EXTT4=
EXTT5=
EXTT6=
EXTT7=
EXTT8=
EXTT9=
PLAYORDER=
